<?xml version="1.0" encoding="UTF-8"?>
<!DOCTYPE svg PUBLIC "-//W3C//DTD SVG 1.1//EN" "http://www.w3.org/Graphics/SVG/1.1/DTD/svg11.dtd">
<!-- Creator: CorelDRAW 2021 (64-Bit) -->
<svg xmlns="http://www.w3.org/2000/svg" xml:space="preserve" width="25.8252mm" height="26.095mm" version="1.1" style="shape-rendering:geometricPrecision; text-rendering:geometricPrecision; image-rendering:optimizeQuality; fill-rule:evenodd; clip-rule:evenodd"
viewBox="0 0 2582.26 2609.24"
 xmlns:xlink="http://www.w3.org/1999/xlink"
 xmlns:xodm="http://www.corel.com/coreldraw/odm/2003">
 <defs>
  <style type="text/css">
   <![CDATA[
    .fil0 {fill:black;fill-opacity:0.101961}
   ]]>
  </style>
 </defs>
 <g id="Warstwa_x0020_1">
  <metadata id="CorelCorpID_0Corel-Layer"/>
  <path class="fil0" d="M369.61 553.67c204.6,-315.28 538.23,-526.31 919.6,-526.31 685.04,0 1141.92,635.98 1141.92,1281.07 0,79.42 -6.5,158.79 -19.65,237.03l-13.49 79.99 -59.99 -54.54c-258.52,-235.01 -790.17,-349.65 -1125.13,-442.56 -272.4,-75.54 -804.44,-208.03 -850.07,-544.69l-2.17 -16.22 8.99 -13.78zm-218.48 754.76c0,-156.74 25.05,-312.95 76.05,-461.29l26.92 -78.34 50.17 66c387.13,508.6 1941.08,413.43 1981.72,1083.88l0.71 12.04 -5.45 10.73c-191.41,378.58 -560.16,644.23 -992.05,644.23 -691.53,0 -1138.08,-648.35 -1138.08,-1277.24zm1138.08 -1308.44c-717.73,0 -1289.21,591.11 -1289.21,1304.58 0,713.46 571.45,1304.66 1289.21,1304.66 719.22,0 1293.05,-588.68 1293.05,-1304.66 0,-715.99 -573.88,-1304.58 -1293.05,-1304.58z"/>
 </g>
</svg>
