<?xml version="1.0" encoding="UTF-8"?>
<!DOCTYPE svg PUBLIC "-//W3C//DTD SVG 1.1//EN" "http://www.w3.org/Graphics/SVG/1.1/DTD/svg11.dtd">
<!-- Creator: CorelDRAW 2021 (64-Bit) -->
<svg xmlns="http://www.w3.org/2000/svg" xml:space="preserve" width="100.784mm" height="101.839mm" version="1.1" style="shape-rendering:geometricPrecision; text-rendering:geometricPrecision; image-rendering:optimizeQuality; fill-rule:evenodd; clip-rule:evenodd"
viewBox="0 0 10077.38 10182.85"
 xmlns:xlink="http://www.w3.org/1999/xlink"
 xmlns:xodm="http://www.corel.com/coreldraw/odm/2003">
 <defs>
  <style type="text/css">
   <![CDATA[
    .fil0 {fill:black}
   ]]>
  </style>
 </defs>
 <g id="Warstwa_x0020_1">
  <metadata id="CorelCorpID_0Corel-Layer"/>
  <path class="fil0" d="M5031.12 0c-2800.96,0 -5031.12,2306.94 -5031.12,5091.34 0,2784.39 2229.98,5091.51 5031.12,5091.51 2806.85,0 5046.26,-2297.32 5046.26,-5091.51 0,-2794.2 -2239.6,-5091.34 -5046.26,-5091.34zm-4441.42 5106.48c0,-611.79 97.81,-1221.43 296.81,-1800.26l105.11 -305.72 195.79 257.43c1510.76,1984.83 7575.18,1613.56 7733.74,4230.13l2.85 46.86 -21.2 41.87c-747.01,1477.45 -2186.15,2514.14 -3871.69,2514.14 -2698.7,0 -4441.42,-2530.17 -4441.42,-4984.44zm852.65 -2945.62c798.5,-1230.34 2100.46,-2053.96 3588.77,-2053.96 2673.58,0 4456.57,2482.06 4456.57,4999.58 0,309.82 -25.48,619.63 -76.78,924.98l-52.55 312.13 -234.28 -212.9c-1008.89,-917.14 -3083.52,-1364.49 -4390.82,-1727.04 -1063.06,-294.84 -3139.46,-811.86 -3317.44,-2125.75l-8.55 -63.24 35.1 -53.8z"/>
 </g>
</svg>
