<?xml version="1.0" encoding="UTF-8"?>
<!DOCTYPE svg PUBLIC "-//W3C//DTD SVG 1.1//EN" "http://www.w3.org/Graphics/SVG/1.1/DTD/svg11.dtd">
<!-- Creator: CorelDRAW 2021 (64-Bit) -->
<svg xmlns="http://www.w3.org/2000/svg" xml:space="preserve" width="58.4865mm" height="12.0154mm" version="1.1" style="shape-rendering:geometricPrecision; text-rendering:geometricPrecision; image-rendering:optimizeQuality; fill-rule:evenodd; clip-rule:evenodd"
viewBox="0 0 5847.58 1201.32"
 xmlns:xlink="http://www.w3.org/1999/xlink"
 xmlns:xodm="http://www.corel.com/coreldraw/odm/2003">
 <defs>
  <style type="text/css">
   <![CDATA[
    .fil0 {fill:#2B2A29}
   ]]>
  </style>
 </defs>
 <g id="Warstwa_x0020_1">
  <metadata id="CorelCorpID_0Corel-Layer"/>
  <path class="fil0" d="M1755.8 1140.95c0,-11.38 2.57,-21.61 7.7,-30.69 5.13,-9.08 12.12,-16.19 20.99,-21.32 8.86,-5.13 18.7,-7.7 29.51,-7.7 12.71,0 23.81,3.07 33.27,9.2 9.48,6.14 16.39,14.83 20.74,26.1l-18.23 0c-3.23,-7.03 -7.89,-12.44 -13.96,-16.23 -6.08,-3.79 -13.36,-5.68 -21.83,-5.68 -8.14,0 -15.45,1.89 -21.91,5.68 -6.47,3.79 -11.54,9.17 -15.22,16.14 -3.68,6.97 -5.52,15.14 -5.52,24.51 0,9.25 1.84,17.36 5.52,24.33 3.68,6.97 8.75,12.35 15.22,16.14 6.46,3.79 13.77,5.69 21.91,5.69 8.47,0 15.75,-1.87 21.83,-5.6 6.07,-3.74 10.73,-9.12 13.96,-16.14l18.23 0c-4.35,11.15 -11.26,19.76 -20.74,25.84 -9.47,6.08 -20.57,9.11 -33.27,9.11 -10.82,0 -20.66,-2.53 -29.51,-7.61 -8.87,-5.07 -15.86,-12.12 -20.99,-21.16 -5.13,-9.03 -7.7,-19.23 -7.7,-30.59zm1450.76 -646.8l28.05 0 -57.38 -62.12 1.95 -3.07c2.08,-3.28 4.05,-6.61 5.93,-10 2.34,-4.24 4.5,-8.57 6.51,-12.96 2.26,-4.93 4.33,-9.94 6.21,-15.03 1.95,-5.29 3.71,-10.64 5.27,-16.05 1.59,-5.5 2.94,-11.07 4.12,-16.66 1.17,-5.56 2.15,-11.17 2.93,-16.81 0.79,-5.74 1.38,-11.5 1.77,-17.29 0.39,-5.82 0.61,-11.66 0.61,-17.51l0 -2.26 -10.27 0 -0.02 2.28c-0.07,5.63 -0.33,11.27 -0.76,16.89 -0.41,5.52 -1.02,11.03 -1.81,16.51 -0.79,5.37 -1.75,10.71 -2.92,16.01 -1.12,5.16 -2.44,10.28 -3.96,15.34 -1.5,5 -3.17,9.95 -5.03,14.85 -1.78,4.71 -3.76,9.36 -5.9,13.93 -1.77,3.79 -3.66,7.54 -5.71,11.27l-6.87 11.94 -100.38 -108.83c-3.25,-3.52 -6.4,-7.12 -9.49,-10.78 -2.74,-3.25 -5.43,-6.56 -8.01,-9.94 -2.27,-2.97 -4.47,-6.01 -6.55,-9.13 -1.86,-2.75 -3.65,-5.55 -5.27,-8.45 -2.85,-5.1 -5.11,-10.52 -6.64,-16.16 -1.47,-5.44 -2.23,-11.04 -2.23,-16.67 0,-3.73 0.27,-7.47 0.91,-11.14 0.59,-3.44 1.48,-6.83 2.73,-10.1 1.2,-3.16 2.75,-6.17 4.58,-9 1.85,-2.87 3.99,-5.53 6.39,-7.97 2.41,-2.44 5.07,-4.63 7.94,-6.51 2.88,-1.87 5.97,-3.41 9.2,-4.62 3.39,-1.28 6.92,-2.2 10.49,-2.79 3.9,-0.66 7.88,-0.93 11.84,-0.93 2.74,0 5.49,0.15 8.22,0.49 2.77,0.33 5.55,0.84 8.27,1.51 2.89,0.7 5.74,1.59 8.54,2.58 2.93,1.04 5.81,2.25 8.63,3.57 2.86,1.34 5.66,2.82 8.38,4.43 2.66,1.56 5.23,3.26 7.71,5.11 2.42,1.81 4.77,3.74 6.99,5.8 2.17,2.04 4.26,4.18 6.22,6.42l1.6 1.83 6.27 -6.27 -1.19 -1.56c-4.07,-5.35 -8.77,-10.16 -14,-14.39 -5.44,-4.39 -11.39,-8.11 -17.66,-11.2 -3.18,-1.57 -6.43,-2.99 -9.76,-4.21 -3.18,-1.17 -6.42,-2.21 -9.7,-3.02 -3.21,-0.79 -6.46,-1.41 -9.74,-1.82 -3.18,-0.39 -6.4,-0.61 -9.6,-0.61 -5.44,0 -10.88,0.37 -16.26,1.18 -4.95,0.75 -9.86,1.92 -14.61,3.53 -4.52,1.54 -8.9,3.49 -13.02,5.89 -4.04,2.35 -7.8,5.11 -11.25,8.26 -3.4,3.08 -6.43,6.53 -9.06,10.29 -2.6,3.73 -4.79,7.73 -6.5,11.94 -1.77,4.35 -3.06,8.88 -3.9,13.48 -0.89,4.95 -1.32,9.98 -1.32,15 0,3.04 0.18,6.09 0.53,9.11 0.35,2.95 0.88,5.89 1.57,8.77 0.69,2.86 1.54,5.66 2.56,8.41 1.03,2.74 2.22,5.43 3.6,8.02 1.41,2.68 2.96,5.3 4.58,7.86 1.77,2.77 3.64,5.49 5.57,8.1l5.55 7.18 6.89 8.21 -3.75 3.04c-3.58,2.89 -7.09,5.87 -10.53,8.92 -3.98,3.54 -7.89,7.19 -11.64,10.97 -3.77,3.81 -7.42,7.75 -10.87,11.86 -3.09,3.71 -6.03,7.55 -8.72,11.55 -5,7.45 -8.97,15.51 -11.62,24.09 -2.63,8.49 -3.9,17.26 -3.9,26.14 0,3.9 0.23,7.8 0.68,11.68 0.45,3.78 1.14,7.56 2.04,11.27 0.88,3.65 1.98,7.23 3.31,10.74 1.33,3.51 2.93,6.92 4.7,10.23 1.74,3.28 3.72,6.46 5.91,9.48 2.16,2.97 4.55,5.78 7.12,8.42 2.6,2.67 5.39,5.16 8.34,7.45 3.02,2.35 6.2,4.48 9.52,6.39 3.38,1.94 6.9,3.66 10.52,5.1 3.69,1.48 7.5,2.71 11.35,3.66 4.01,0.98 8.07,1.72 12.15,2.2 4.28,0.5 8.58,0.74 12.88,0.74 4.68,0 9.34,-0.29 13.98,-0.86 4.62,-0.57 9.2,-1.42 13.72,-2.54 4.54,-1.13 9.01,-2.54 13.37,-4.2 4.46,-1.71 8.81,-3.68 13.04,-5.88 4.29,-2.24 8.46,-4.71 12.49,-7.39 4.06,-2.68 7.97,-5.58 11.72,-8.7 3.34,-2.79 6.57,-5.71 9.66,-8.78 2.19,-2.18 4.32,-4.42 6.37,-6.72l3.44 -3.88 42.39 44.91zm-130.77 -14.34c-3.69,0 -7.4,-0.19 -11.06,-0.62 -3.51,-0.41 -7,-1.03 -10.43,-1.89 -3.29,-0.83 -6.51,-1.88 -9.65,-3.16 -3.13,-1.25 -6.17,-2.73 -9.08,-4.42 -2.87,-1.65 -5.62,-3.51 -8.23,-5.54 -2.55,-1.97 -4.97,-4.1 -7.21,-6.4 -2.23,-2.25 -4.31,-4.68 -6.2,-7.23 -1.94,-2.58 -3.69,-5.3 -5.26,-8.11 -1.58,-2.85 -2.98,-5.8 -4.17,-8.84 -1.18,-3.03 -2.19,-6.15 -2.98,-9.31 -0.8,-3.24 -1.39,-6.52 -1.77,-9.83 -0.4,-3.45 -0.59,-6.92 -0.59,-10.39 0,-3.78 0.23,-7.55 0.74,-11.3 0.49,-3.62 1.24,-7.22 2.25,-10.75 0.98,-3.46 2.24,-6.85 3.73,-10.12 1.51,-3.34 3.29,-6.53 5.25,-9.62 2.11,-3.33 4.44,-6.54 6.89,-9.63 2.71,-3.4 5.59,-6.65 8.57,-9.8 3,-3.17 6.14,-6.24 9.39,-9.24l11.47 -10.11 108.81 116.63 -8.64 8.57c-2.71,2.56 -5.48,4.97 -8.33,7.26 -3.13,2.52 -6.39,4.86 -9.75,7.06 -3.31,2.15 -6.72,4.17 -10.23,6 -3.42,1.77 -6.94,3.37 -10.54,4.73 -3.52,1.35 -7.1,2.49 -10.75,3.38 -3.62,0.89 -7.29,1.56 -10.99,2 -3.74,0.46 -7.5,0.66 -11.26,0.66zm1304.58 -472.8c-181.9,0 -326.73,149.81 -326.73,330.63 0,180.82 144.82,330.65 326.73,330.65 182.28,0 327.71,-149.19 327.71,-330.65 0,-181.46 -145.44,-330.63 -327.71,-330.63zm-288.43 331.61c0,-39.72 6.35,-79.32 19.28,-116.91l6.82 -19.86 12.72 16.73c98.11,128.9 491.94,104.78 502.24,274.7l0.18 3.05 -1.38 2.72c-48.51,95.94 -141.96,163.27 -251.42,163.27 -175.26,0 -288.43,-164.32 -288.43,-323.7zm55.37 -191.29c51.85,-79.91 136.41,-133.39 233.06,-133.39 173.62,0 289.41,161.18 289.41,324.67 0,20.13 -1.65,40.24 -4.98,60.07l-3.42 20.28 -15.21 -13.83c-65.52,-59.56 -200.25,-88.61 -285.15,-112.16 -69.04,-19.15 -203.87,-52.72 -215.44,-138.04l-0.55 -4.11 2.28 -3.49zm-685.94 318.9l-65.7 48.16c12.67,28.13 38.42,59.89 59.97,80.25 60.5,57.2 137.23,82.6 219.87,82.6 124.46,0 291.02,-35.73 297.49,-188.92 9.06,-214.41 -500.07,-157.52 -492.72,-330.12 4.66,-109.44 109.89,-143.14 204.04,-143.14 55.12,0 110.01,14.29 150.17,53.79 12.41,12.21 26.32,30.62 33.53,48.02l46.99 -54.55c-62.67,-39.8 -157.67,-62.33 -229.71,-62.33 -102.4,0 -244.53,42.37 -249.48,165.41 -8.27,204.4 482.45,140.13 475.09,324.24 -1.68,41.74 -23.88,81.36 -54.55,108.89 -48.48,43.5 -115.41,57.77 -178.9,57.77 -109.27,0 -189.8,-90.24 -216.1,-190.08zm1425.52 -466.23l-98.29 0c17.58,15.89 22.72,49.39 22.72,69.25l0 366.36c0,169.08 83.92,239.69 247.51,239.69 169.38,0 225.01,-71.71 225.01,-238.72l0 -367.36c0.28,-19.46 5.7,-53.32 23.21,-69.22l-64.9 0c17.57,15.89 22.71,49.39 22.71,69.25l0 363.42c0,153.66 -50.28,222.66 -206.02,222.66 -138.94,0 -194.24,-85.09 -194.24,-219.72l0 -366.36c0,-19.37 4.94,-53.32 22.31,-69.25zm960.68 677.25l0 -75.21c-7.68,8.79 -18.56,16.61 -26.46,21.2 -46.03,26.69 -114.4,32.09 -166.22,32.09 -56.51,0 -113.02,0.94 -169.46,0.98 -23.74,0.01 -23.82,-31.31 -23.82,-48.3l0 -538.76c0,-19.37 4.94,-53.32 22.31,-69.25l-96.32 0c17.57,15.89 22.71,49.39 22.71,69.25l0 538.76c0,19.87 -5.14,53.36 -22.73,69.24l459.99 0zm-3501.19 -274.54c46.3,-117.66 93.17,-235.24 140.08,-352.66l3.93 -9.82 3.92 9.82c46.97,117.56 93.87,235.16 141.05,352.64l2.33 5.79 -293.58 0 2.26 -5.77zm-1350.75 -395.7c-181.9,0 -326.72,149.81 -326.72,330.63 0,180.82 144.81,330.65 326.72,330.65 182.28,0 327.71,-149.19 327.71,-330.65 0,-181.46 -145.44,-330.63 -327.71,-330.63zm-288.43 331.61c0,-39.72 6.35,-79.32 19.28,-116.91l6.82 -19.86 12.72 16.73c98.11,128.9 491.94,104.78 502.24,274.7l0.18 3.05 -1.37 2.72c-48.51,95.94 -141.97,163.27 -251.43,163.27 -175.26,0 -288.43,-164.32 -288.43,-323.7zm55.37 -191.29c51.86,-79.91 136.41,-133.39 233.06,-133.39 173.63,0 289.42,161.18 289.42,324.67 0,20.13 -1.66,40.24 -4.99,60.07l-3.42 20.28 -15.21 -13.83c-65.52,-59.56 -200.24,-88.61 -285.15,-112.16 -69.04,-19.15 -203.87,-52.72 -215.43,-138.04l-0.56 -4.11 2.28 -3.49zm-696.89 318.9l-65.69 48.16c12.67,28.13 38.42,59.89 59.96,80.25 60.5,57.2 137.24,82.6 219.87,82.6 124.47,0 291.03,-35.73 297.49,-188.92 9.06,-214.41 -500.07,-157.52 -492.72,-330.12 4.66,-109.44 109.9,-143.14 204.05,-143.14 55.12,0 110,14.29 150.17,53.79 12.4,12.21 26.31,30.62 33.52,48.02l47 -54.55c-62.68,-39.8 -157.67,-62.33 -229.72,-62.33 -102.4,0 -244.52,42.37 -249.48,165.41 -8.26,204.4 482.45,140.13 475.09,324.24 -1.68,41.74 -23.87,81.36 -54.55,108.89 -48.47,43.5 -115.41,57.77 -178.89,57.77 -109.28,0 -189.8,-90.24 -216.11,-190.08zm2039.08 -466.23l-134.51 0c13.35,17.3 2.76,55.52 -3.06,70.75l-208.68 546.16 -208.67 -546.17c-5.56,-14.98 -15.94,-53.39 -2.79,-70.74l-132.24 0c17.58,15.89 22.72,49.39 22.72,69.25l0 538.76c0,19.87 -5.14,53.36 -22.73,69.24l64.99 0c-17.37,-15.92 -22.31,-49.87 -22.31,-69.24l0 -522.11c0,-15.76 1.62,-33.28 8.23,-47.78l2.81 -6.18 4.29 5.26c18.38,22.43 30.35,42.31 40.84,69.74 63.69,166.51 127.58,332.96 191.02,499.57 8.74,22.96 17.43,48.1 27.23,70.75 9.93,-0.07 17.67,-0.82 23.88,-9.91 9.36,-13.7 19.14,-44.84 25.25,-60.84 53.28,-139.47 106.61,-278.93 159.93,-418.38 8.66,-22.68 18.48,-46.23 26.16,-69.35 15.17,-39.43 22.45,-52.64 47.73,-83.53l3.97 -4.86 3 5.51c8.01,14.67 9.34,33.63 9.34,50.01l0 522.11c0,19.85 -5.13,53.36 -22.72,69.24l96.33 0c-17.37,-15.92 -22.31,-49.87 -22.31,-69.24l0 -538.76c0,-19.37 4.94,-53.32 22.31,-69.25zm616.33 677.25l95.75 0c-22.44,-15.41 -40.39,-47.85 -48.25,-67.68l-241.88 -609.57 -39.33 0 -242.85 609.57c-7.88,19.78 -25.89,52.26 -48.31,67.68l64.62 0c-13.12,-17.47 -1.7,-55.87 4.25,-70.8l75.51 -189.76 300.57 0 76.5 189.76c6.02,15.36 16.86,53.41 3.43,70.8zm1345.37 496.14l-50.84 0 -9.36 25.93 -16.06 0 42.14 -115.89 17.56 0 41.97 115.89 -16.05 0 -9.37 -25.93zm-4.35 -12.37l-21.07 -58.87 -21.08 58.87 42.14 0zm-125.33 -44.15c0,9.7 -3.32,17.76 -9.95,24.17 -6.63,6.41 -16.75,9.62 -30.35,9.62l-22.41 0 0 48.66 -15.22 0 0 -116.56 37.62 0c13.16,0 23.17,3.18 30.02,9.53 6.85,6.36 10.28,14.56 10.28,24.59zm-40.3 21.24c8.48,0 14.72,-1.84 18.74,-5.52 4.01,-3.68 6.02,-8.92 6.02,-15.72 0,-14.38 -8.25,-21.58 -24.76,-21.58l-22.41 0 0 42.81 22.41 0zm-140.71 62.38c-7.69,0 -14.58,-1.37 -20.65,-4.1 -6.08,-2.73 -10.85,-6.52 -14.3,-11.37 -3.46,-4.85 -5.24,-10.45 -5.36,-16.81l16.23 0c0.56,5.46 2.81,10.06 6.77,13.8 3.96,3.73 9.73,5.6 17.31,5.6 7.25,0 12.97,-1.81 17.15,-5.43 4.18,-3.63 6.27,-8.28 6.27,-13.97 0,-4.46 -1.23,-8.08 -3.68,-10.87 -2.45,-2.79 -5.52,-4.91 -9.2,-6.36 -3.68,-1.45 -8.64,-3.01 -14.89,-4.68 -7.69,-2.01 -13.85,-4.02 -18.48,-6.02 -4.63,-2.01 -8.58,-5.16 -11.87,-9.45 -3.29,-4.3 -4.94,-10.07 -4.94,-17.31 0,-6.36 1.62,-11.99 4.85,-16.9 3.24,-4.9 7.78,-8.7 13.64,-11.37 5.85,-2.68 12.57,-4.02 20.15,-4.02 10.93,0 19.88,2.74 26.85,8.2 6.96,5.46 10.89,12.71 11.79,21.74l-16.73 0c-0.56,-4.46 -2.9,-8.39 -7.02,-11.79 -4.13,-3.4 -9.59,-5.1 -16.4,-5.1 -6.35,0 -11.54,1.65 -15.55,4.93 -4.01,3.29 -6.02,7.89 -6.02,13.8 0,4.24 1.2,7.7 3.59,10.37 2.4,2.68 5.36,4.72 8.87,6.11 3.51,1.39 8.45,2.98 14.8,4.77 7.7,2.11 13.88,4.21 18.57,6.27 4.68,2.06 8.69,5.24 12.04,9.53 3.35,4.29 5.02,10.12 5.02,17.48 0,5.69 -1.51,11.04 -4.52,16.06 -3.01,5.02 -7.47,9.09 -13.38,12.21 -5.91,3.12 -12.88,4.68 -20.91,4.68zm-157.61 -1.17l-15.22 -15.39c-5.68,5.91 -11.76,10.29 -18.23,13.13 -6.47,2.85 -13.77,4.27 -21.91,4.27 -8.03,0 -15.14,-1.45 -21.33,-4.35 -6.18,-2.9 -10.98,-7.03 -14.38,-12.38 -3.4,-5.35 -5.1,-11.6 -5.1,-18.73 0,-8.14 2.31,-15.31 6.94,-21.49 4.63,-6.19 11.46,-11.07 20.49,-14.64 -3.57,-4.24 -6.13,-8.14 -7.69,-11.71 -1.57,-3.57 -2.35,-7.47 -2.35,-11.71 0,-4.9 1.26,-9.34 3.77,-13.29 2.51,-3.96 6.1,-7.06 10.79,-9.29 4.68,-2.23 10.09,-3.34 16.22,-3.34 6.02,0 11.26,1.17 15.72,3.51 4.46,2.34 7.81,5.6 10.04,9.79 2.23,4.18 3.23,8.83 3.01,13.96l-15.22 0c0.11,-4.57 -1.17,-8.17 -3.85,-10.79 -2.68,-2.62 -6.13,-3.93 -10.37,-3.93 -4.46,0 -8.06,1.26 -10.79,3.77 -2.73,2.5 -4.1,5.71 -4.1,9.61 0,3.35 0.92,6.58 2.76,9.7 1.84,3.13 4.94,6.97 9.29,11.55l34.78 34.94 3.01 -4.68 11.37 -19.07 16.39 0 -13.71 23.75c-1.9,3.35 -4.13,6.86 -6.69,10.54l26.26 26.26 -19.91 0zm-55.35 -11.04c6.02,0 11.46,-1.17 16.31,-3.51 4.85,-2.34 9.45,-5.97 13.8,-10.87l-34.28 -34.45c-14.27,5.46 -21.41,14.11 -21.41,25.93 0,6.58 2.37,12.04 7.11,16.39 4.74,4.35 10.9,6.52 18.48,6.52zm-136.7 -105.52l-37.96 72.58 0 43.98 -15.22 0 0 -43.98 -38.12 -72.58 16.89 0 28.76 59.03 28.76 -59.03 16.89 0zm-165.3 33.78c-3.23,-6.81 -7.91,-12.07 -14.05,-15.81 -6.13,-3.74 -13.27,-5.6 -21.41,-5.6 -8.14,0 -15.47,1.86 -21.99,5.6 -6.52,3.74 -11.65,9.09 -15.39,16.06 -3.73,6.97 -5.6,15.02 -5.6,24.17 0,9.14 1.87,17.17 5.6,24.08 3.74,6.92 8.87,12.24 15.39,15.98 6.52,3.73 13.85,5.6 21.99,5.6 11.38,0 20.74,-3.4 28.09,-10.2 7.36,-6.81 11.66,-16.01 12.88,-27.59l-46.49 0 0 -12.38 62.72 0 0 11.71c-0.9,9.59 -3.91,18.37 -9.04,26.34 -5.13,7.97 -11.87,14.27 -20.23,18.9 -8.37,4.63 -17.68,6.94 -27.93,6.94 -10.81,0 -20.68,-2.53 -29.59,-7.61 -8.92,-5.07 -15.98,-12.12 -21.16,-21.16 -5.19,-9.03 -7.78,-19.23 -7.78,-30.59 0,-11.38 2.59,-21.61 7.78,-30.69 5.18,-9.08 12.24,-16.16 21.16,-21.24 8.92,-5.07 18.79,-7.61 29.59,-7.61 12.38,0 23.34,3.07 32.86,9.2 9.53,6.13 16.47,14.78 20.82,25.93l-18.23 0zm-208.78 83.94c-10.81,0 -20.68,-2.54 -29.59,-7.61 -8.92,-5.07 -15.98,-12.15 -21.16,-21.24 -5.19,-9.09 -7.78,-19.32 -7.78,-30.68 0,-11.38 2.59,-21.61 7.78,-30.69 5.18,-9.08 12.24,-16.16 21.16,-21.24 8.92,-5.07 18.79,-7.61 29.59,-7.61 10.93,0 20.85,2.54 29.77,7.61 8.92,5.08 15.94,12.13 21.07,21.16 5.13,9.03 7.69,19.29 7.69,30.77 0,11.48 -2.56,21.74 -7.69,30.76 -5.13,9.03 -12.15,16.09 -21.07,21.16 -8.93,5.07 -18.85,7.61 -29.77,7.61zm0 -13.21c8.14,0 15.47,-1.9 22,-5.69 6.52,-3.79 11.65,-9.2 15.39,-16.22 3.73,-7.03 5.6,-15.17 5.6,-24.42 0,-9.37 -1.87,-17.54 -5.6,-24.51 -3.74,-6.97 -8.84,-12.35 -15.31,-16.14 -6.47,-3.79 -13.83,-5.68 -22.08,-5.68 -8.25,0 -15.61,1.89 -22.08,5.68 -6.46,3.79 -11.56,9.17 -15.3,16.14 -3.73,6.97 -5.6,15.14 -5.6,24.51 0,9.25 1.87,17.39 5.6,24.42 3.74,7.02 8.87,12.43 15.39,16.22 6.52,3.79 13.85,5.69 21.99,5.69zm-151.75 -0.34l40.8 0 0 12.38 -56.02 0 0 -116.56 15.22 0 0 104.18zm-135.71 13.55c-10.81,0 -20.68,-2.54 -29.59,-7.61 -8.92,-5.07 -15.98,-12.15 -21.16,-21.24 -5.19,-9.09 -7.78,-19.32 -7.78,-30.68 0,-11.38 2.59,-21.61 7.78,-30.69 5.18,-9.08 12.24,-16.16 21.16,-21.24 8.92,-5.07 18.79,-7.61 29.59,-7.61 10.93,0 20.85,2.54 29.77,7.61 8.92,5.08 15.94,12.13 21.07,21.16 5.13,9.03 7.69,19.29 7.69,30.77 0,11.48 -2.56,21.74 -7.69,30.76 -5.13,9.03 -12.15,16.09 -21.07,21.16 -8.93,5.07 -18.85,7.61 -29.77,7.61zm0 -13.21c8.14,0 15.47,-1.9 22,-5.69 6.52,-3.79 11.65,-9.2 15.39,-16.22 3.73,-7.03 5.6,-15.17 5.6,-24.42 0,-9.37 -1.87,-17.54 -5.6,-24.51 -3.74,-6.97 -8.84,-12.35 -15.31,-16.14 -6.47,-3.79 -13.83,-5.68 -22.08,-5.68 -8.25,0 -15.61,1.89 -22.08,5.68 -6.46,3.79 -11.56,9.17 -15.3,16.14 -3.73,6.97 -5.6,15.14 -5.6,24.51 0,9.25 1.87,17.39 5.6,24.42 3.74,7.02 8.87,12.43 15.39,16.22 6.52,3.79 13.85,5.69 21.99,5.69zm-113.46 -104.52l0 12.38 -31.77 0 0 104.18 -15.22 0 0 -104.18 -31.93 0 0 -12.38 78.93 0zm-184.19 12.38l0 38.96 42.47 0 0 12.54 -42.47 0 0 40.14 47.49 0 0 12.54 -62.71 0 0 -116.73 62.71 0 0 12.55 -47.49 0zm-82.85 -11.54l0 115.72 -15.22 0 0 -86.29 -38.46 86.29 -10.7 0 -38.63 -86.45 0 86.45 -15.22 0 0 -115.72 16.39 0 42.81 95.65 42.81 -95.65 16.22 0zm-221.32 116.89c-7.69,0 -14.58,-1.37 -20.65,-4.1 -6.08,-2.73 -10.85,-6.52 -14.3,-11.37 -3.46,-4.85 -5.24,-10.45 -5.36,-16.81l16.23 0c0.56,5.46 2.81,10.06 6.77,13.8 3.96,3.73 9.73,5.6 17.31,5.6 7.25,0 12.97,-1.81 17.15,-5.43 4.18,-3.63 6.27,-8.28 6.27,-13.97 0,-4.46 -1.23,-8.08 -3.68,-10.87 -2.45,-2.79 -5.52,-4.91 -9.2,-6.36 -3.68,-1.45 -8.64,-3.01 -14.89,-4.68 -7.69,-2.01 -13.85,-4.02 -18.48,-6.02 -4.63,-2.01 -8.58,-5.16 -11.87,-9.45 -3.29,-4.3 -4.94,-10.07 -4.94,-17.31 0,-6.36 1.62,-11.99 4.85,-16.9 3.24,-4.9 7.78,-8.7 13.64,-11.37 5.85,-2.68 12.57,-4.02 20.15,-4.02 10.93,0 19.88,2.74 26.85,8.2 6.96,5.46 10.89,12.71 11.79,21.74l-16.73 0c-0.56,-4.46 -2.9,-8.39 -7.02,-11.79 -4.13,-3.4 -9.59,-5.1 -16.4,-5.1 -6.35,0 -11.54,1.65 -15.55,4.93 -4.01,3.29 -6.02,7.89 -6.02,13.8 0,4.24 1.2,7.7 3.59,10.37 2.4,2.68 5.36,4.72 8.87,6.11 3.51,1.39 8.45,2.98 14.8,4.77 7.7,2.11 13.88,4.21 18.57,6.27 4.68,2.06 8.69,5.24 12.04,9.53 3.35,4.29 5.02,10.12 5.02,17.48 0,5.69 -1.51,11.04 -4.52,16.06 -3.01,5.02 -7.47,9.09 -13.38,12.21 -5.91,3.12 -12.88,4.68 -20.91,4.68zm-157.44 0c-10.81,0 -20.68,-2.54 -29.59,-7.61 -8.92,-5.07 -15.98,-12.15 -21.16,-21.24 -5.19,-9.09 -7.78,-19.32 -7.78,-30.68 0,-11.38 2.59,-21.61 7.78,-30.69 5.18,-9.08 12.24,-16.16 21.16,-21.24 8.92,-5.07 18.79,-7.61 29.59,-7.61 10.93,0 20.85,2.54 29.77,7.61 8.92,5.08 15.94,12.13 21.07,21.16 5.13,9.03 7.69,19.29 7.69,30.77 0,11.48 -2.56,21.74 -7.69,30.76 -5.13,9.03 -12.15,16.09 -21.07,21.16 -8.93,5.07 -18.85,7.61 -29.77,7.61zm0 -13.21c8.14,0 15.47,-1.9 22,-5.69 6.52,-3.79 11.65,-9.2 15.39,-16.22 3.73,-7.03 5.6,-15.17 5.6,-24.42 0,-9.37 -1.87,-17.54 -5.6,-24.51 -3.74,-6.97 -8.84,-12.35 -15.31,-16.14 -6.47,-3.79 -13.83,-5.68 -22.08,-5.68 -8.25,0 -15.61,1.89 -22.08,5.68 -6.46,3.79 -11.56,9.17 -15.3,16.14 -3.73,6.97 -5.6,15.14 -5.6,24.51 0,9.25 1.87,17.39 5.6,24.42 3.74,7.02 8.87,12.43 15.39,16.22 6.52,3.79 13.85,5.69 21.99,5.69z"/>
 </g>
</svg>
